<svg aria-hidden="true" style="width:0;height:0;position:absolute;overflow:hidden" xmlns="http://www.w3.org/2000/svg"><defs><symbol id="icon-chart" viewBox="0 0 32 32"><path fill="#b00000" style="fill:var(--color1,#b00000)" opacity=".15" d="M16.128 32c8.837 0 16-7.163 16-16s-7.163-16-16-16-16 7.163-16 16 7.163 16 16 16z"/><path fill="none" stroke="#b00000" style="stroke:var(--color1,#b00000)" stroke-linejoin="round" stroke-linecap="round" stroke-width=".96" d="M24.158 20.013v.47a1.193 1.193 0 0 1-1.191 1.191H8.679a1.193 1.193 0 0 1-1.191-1.191v-8.732a1.193 1.193 0 0 1 1.191-1.191h14.288a1.193 1.193 0 0 1 1.191 1.191v1.929"/><path fill="none" stroke="#b00000" style="stroke:var(--color1,#b00000)" stroke-linejoin="round" stroke-linecap="round" stroke-miterlimit="10" stroke-width=".96" d="M22.222 13.834v1.329M22.222 18.265v1.329M24.595 15.325l-1.103.623M20.951 17.48l-1.103.623M19.848 15.325l1.103.624M23.493 17.48l1.103.624M9.855 18.474l2.498-2.498 1.834 1.834 3.832-3.832"/></symbol><symbol id="icon-clock" viewBox="0 0 32 32"><path fill="#b00000" style="fill:var(--color1,#b00000)" opacity=".15" d="M16.128 32c8.837 0 16-7.163 16-16s-7.163-16-16-16-16 7.163-16 16 7.163 16 16 16z"/><path fill="none" stroke="#b00000" style="stroke:var(--color1,#b00000)" stroke-linejoin="round" stroke-linecap="round" stroke-width=".96" d="M11.616 7.644a9.28 9.28 0 1 1-3.183 2.779"/><path fill="none" stroke="#b00000" style="stroke:var(--color1,#b00000)" stroke-linejoin="round" stroke-linecap="round" stroke-width=".64" d="m11.161 7.733.622-1.345M11.16 7.64l1.316.53"/><path fill="none" stroke="#b00000" style="stroke:var(--color1,#b00000)" stroke-width=".96" d="M15.968 23.081a7.241 7.241 0 1 0 0-14.482 7.241 7.241 0 0 0 0 14.482z"/><path fill="#b00000" style="fill:var(--color1,#b00000)" d="M15.968 9.745a.406.406 0 0 0-.406.406v.542a.406.406 0 0 0 .812 0v-.542a.406.406 0 0 0-.406-.406zM15.968 20.581a.406.406 0 0 0-.406.406v.542a.406.406 0 0 0 .812 0v-.542a.406.406 0 0 0-.406-.406zM22.063 15.84a.406.406 0 0 0-.406-.406h-.542a.406.406 0 0 0 0 .812h.542a.406.406 0 0 0 .406-.406zM11.227 15.84a.406.406 0 0 0-.406-.406h-.542a.406.406 0 0 0 0 .812h.542a.406.406 0 0 0 .406-.406z"/><path fill="none" stroke="#b00000" style="stroke:var(--color1,#b00000)" stroke-linejoin="round" stroke-linecap="round" stroke-width=".96" d="m13.856 15.883 1.498 1.456 3.11-3.023"/></symbol><symbol id="icon-cloud" viewBox="0 0 32 32"><path fill="#b00000" style="fill:var(--color1,#b00000)" opacity=".15" d="M16.128 32c8.837 0 16-7.163 16-16s-7.163-16-16-16-16 7.163-16 16 7.163 16 16 16z"/><path fill="none" stroke="#b00000" style="stroke:var(--color1,#b00000)" stroke-width=".96" d="M13.965 24.192a.562.562 0 0 0 .742-.303l.456-1.101a6.112 6.112 0 0 0 1.671-.002l.458 1.102a.557.557 0 0 0 .735.305l1.905-.79a.565.565 0 0 0 .309-.311.543.543 0 0 0-.004-.424l-.456-1.104a6.145 6.145 0 0 0 1.182-1.18l1.097.454a.563.563 0 0 0 .741-.302l.791-1.907a.567.567 0 0 0-.304-.737l-.781-.325-12.729-.116-1.077.444a.56.56 0 0 0-.295.731l.788 1.911a.559.559 0 0 0 .304.302.557.557 0 0 0 .43.001l1.105-.456c.339.446.736.844 1.182 1.183l-.453 1.095a.551.551 0 0 0-.007.431c.057.14.168.252.308.31l1.902.788z"/><path fill="none" stroke="#b00000" style="stroke:var(--color1,#b00000)" stroke-width=".96" d="M22.231 17.679H10.832a3.472 3.472 0 0 1 0-6.944l.066.001.322.007.129-.295a4.08 4.08 0 0 1 7.478 0l.123.281.307.007a3.022 3.022 0 0 1 2.713 1.84l.116.273.296.018a2.407 2.407 0 0 1-.15 4.811z"/><path fill="#b00000" style="fill:var(--color1,#b00000)" d="M15.999 20.975H16a4.663 4.663 0 0 0 4.331-2.982.383.383 0 1 0-.717-.274 3.867 3.867 0 0 1-7.228-.001.384.384 0 1 0-.718.274 4.662 4.662 0 0 0 4.331 2.982z"/></symbol><symbol id="icon-headphone" viewBox="0 0 32 32"><path fill="#b00000" style="fill:var(--color1,#b00000)" opacity=".15" d="M15.941 32c8.804 0 15.941-7.163 15.941-16S24.745 0 15.941 0C7.137 0 0 7.163 0 16s7.137 16 15.941 16z"/><path fill="none" stroke="#b00000" style="stroke:var(--color1,#b00000)" stroke-linecap="round" stroke-width=".997" d="M8.477 14.672h-.889c-.152 0-.298.065-.406.181s-.168.273-.168.438v2.482c0 .164.06.322.168.438s.254.181.406.181h.889M23.667 14.672h.626c.152 0 .298.065.406.181s.168.273.168.438v2.482c0 .164-.06.322-.168.438s-.254.181-.406.181h-.889"/><path fill="none" stroke="#b00000" style="stroke:var(--color1,#b00000)" stroke-linecap="round" stroke-width=".96" d="M19.268 22.567h1.167c1.317-.962 2.295-2.321 2.792-3.88s.486-3.237-.03-4.79-1.511-2.9-2.839-3.845a7.616 7.616 0 0 0-9.049.158 7.704 7.704 0 0 0-2.706 3.941c-.462 1.57-.415 3.247.135 4.788s1.574 2.865 2.923 3.781"/><path fill="none" stroke="#b00000" style="stroke:var(--color1,#b00000)" stroke-linecap="round" stroke-width=".96" d="M18.359 23.304h-3.083c-.161-.001-.316-.067-.43-.183s-.179-.275-.179-.44V22.6c.001-.165.065-.323.179-.44s.269-.183.43-.184h3.083c.161.001.316.067.43.183s.179.275.179.44v.081c-.001.165-.065.323-.179.44s-.269.183-.43.183z"/><path fill="#b00000" style="fill:var(--color1,#b00000)" d="M11.218 17.876h1.991v-.483h-1.173v-.019l.408-.4c.574-.524.728-.785.728-1.103 0-.484-.395-.826-.994-.826-.586 0-.989.35-.987.899h.56c-.001-.267.168-.431.423-.431.245 0 .428.153.428.398 0 .222-.136.375-.39.619l-.994.92v.425zm2.317-.491h1.34v.491h.565v-.491h.346v-.473h-.346v-1.829h-.739l-1.166 1.837v.465zm1.351-.473h-.757v-.022l.735-1.163h.022v1.185zm3.007.577.359-.359-.635-.634.635-.634-.359-.361-.635.635-.637-.635-.357.361.634.634-.634.634.357.359.637-.635.635.635zm1.007.387h.61l1.159-2.303v-.49h-1.96v.483h1.349v.019L18.9 17.876z"/></symbol><symbol id="icon-phone" viewBox="0 0 32 32"><path fill="none" stroke="#b00000" style="stroke:var(--color1,#b00000)" stroke-linejoin="round" stroke-linecap="round" stroke-width="3.2" d="M29.333 22.56v4a2.67 2.67 0 0 1-1.811 2.537 2.672 2.672 0 0 1-1.094.13 26.398 26.398 0 0 1-11.507-4.093 25.999 25.999 0 0 1-8-8 26.382 26.382 0 0 1-4.093-11.56 2.657 2.657 0 0 1 .687-2.038 2.664 2.664 0 0 1 1.967-.868h4a2.67 2.67 0 0 1 2.667 2.294 17.16 17.16 0 0 0 .933 3.747 2.675 2.675 0 0 1-.6 2.814l-1.693 1.693a21.333 21.333 0 0 0 8 8l1.693-1.693c.363-.358.82-.605 1.319-.712s1.017-.068 1.494.112a17.16 17.16 0 0 0 3.747.933 2.665 2.665 0 0 1 2.293 2.707z"/></symbol></defs></svg>