<svg aria-hidden="true" style="position: absolute; width: 0; height: 0; overflow: hidden;"
    version="1.1" xmlns="http://www.w3.org/2000/svg" xmlns:xlink="http://www.w3.org/1999/xlink">
    <defs>
        <symbol id="icon-chart" viewBox="0 0 32 32">
            <path fill="#b00000" style="fill: var(--color1, #b00000)" opacity="0.15"
                d="M16.128 32c8.837 0 16-7.163 16-16s-7.163-16-16-16c-8.837 0-16 7.163-16 16s7.163 16 16 16z"></path>
            <path fill="none" stroke="#b00000" style="stroke: var(--color1, #b00000)"
                stroke-linejoin="round" stroke-linecap="round" stroke-miterlimit="4"
                stroke-width="0.96"
                d="M24.158 20.013v0.47c0 0.316-0.125 0.619-0.349 0.842s-0.526 0.349-0.842 0.349h-14.288c-0.316 0-0.619-0.125-0.842-0.349s-0.349-0.526-0.349-0.842v-8.732c0-0.316 0.125-0.619 0.349-0.842s0.526-0.349 0.842-0.349h14.288c0.316 0 0.619 0.125 0.842 0.349s0.349 0.526 0.349 0.842v1.929"></path>
            <path fill="none" stroke="#b00000" style="stroke: var(--color1, #b00000)"
                stroke-linejoin="round" stroke-linecap="round" stroke-miterlimit="10"
                stroke-width="0.96" d="M22.222 13.834v1.329"></path>
            <path fill="none" stroke="#b00000" style="stroke: var(--color1, #b00000)"
                stroke-linejoin="round" stroke-linecap="round" stroke-miterlimit="10"
                stroke-width="0.96" d="M22.222 18.265v1.329"></path>
            <path fill="none" stroke="#b00000" style="stroke: var(--color1, #b00000)"
                stroke-linejoin="round" stroke-linecap="round" stroke-miterlimit="10"
                stroke-width="0.96" d="M24.595 15.325l-1.103 0.623"></path>
            <path fill="none" stroke="#b00000" style="stroke: var(--color1, #b00000)"
                stroke-linejoin="round" stroke-linecap="round" stroke-miterlimit="10"
                stroke-width="0.96" d="M20.951 17.48l-1.103 0.623"></path>
            <path fill="none" stroke="#b00000" style="stroke: var(--color1, #b00000)"
                stroke-linejoin="round" stroke-linecap="round" stroke-miterlimit="10"
                stroke-width="0.96" d="M19.848 15.325l1.103 0.624"></path>
            <path fill="none" stroke="#b00000" style="stroke: var(--color1, #b00000)"
                stroke-linejoin="round" stroke-linecap="round" stroke-miterlimit="10"
                stroke-width="0.96" d="M23.493 17.48l1.103 0.624"></path>
            <path fill="none" stroke="#b00000" style="stroke: var(--color1, #b00000)"
                stroke-linejoin="round" stroke-linecap="round" stroke-miterlimit="10"
                stroke-width="0.96" d="M9.855 18.474l2.498-2.498 1.834 1.834 3.832-3.832"></path>
        </symbol>
        <symbol id="icon-clock" viewBox="0 0 32 32">
            <path fill="#b00000" style="fill: var(--color1, #b00000)" opacity="0.15"
                d="M16.128 32c8.837 0 16-7.163 16-16s-7.163-16-16-16c-8.837 0-16 7.163-16 16s7.163 16 16 16z"></path>
            <path fill="none" stroke="#b00000" style="stroke: var(--color1, #b00000)"
                stroke-linejoin="round" stroke-linecap="round" stroke-miterlimit="4"
                stroke-width="0.96"
                d="M11.616 7.644c2.011-1.068 4.345-1.359 6.557-0.818s4.148 1.876 5.439 3.752c1.291 1.876 1.848 4.16 1.564 6.42s-1.389 4.335-3.104 5.833c-1.715 1.498-3.921 2.313-6.198 2.289s-4.466-0.883-6.15-2.415-2.747-3.63-2.985-5.895c-0.238-2.265 0.365-4.538 1.694-6.387"></path>
            <path fill="none" stroke="#b00000" style="stroke: var(--color1, #b00000)"
                stroke-linejoin="round" stroke-linecap="round" stroke-miterlimit="4"
                stroke-width="0.64" d="M11.161 7.733l0.622-1.345"></path>
            <path fill="none" stroke="#b00000" style="stroke: var(--color1, #b00000)"
                stroke-linejoin="round" stroke-linecap="round" stroke-miterlimit="4"
                stroke-width="0.64" d="M11.16 7.64l1.316 0.53"></path>
            <path fill="none" stroke="#b00000" style="stroke: var(--color1, #b00000)"
                stroke-linejoin="miter" stroke-linecap="butt" stroke-miterlimit="4"
                stroke-width="0.96"
                d="M15.968 23.081c3.999 0 7.241-3.242 7.241-7.241s-3.242-7.241-7.241-7.241-7.241 3.242-7.241 7.241c0 3.999 3.242 7.241 7.241 7.241z"></path>
            <path fill="#b00000" style="fill: var(--color1, #b00000)"
                d="M15.968 9.745v0c-0.224 0-0.406 0.182-0.406 0.406v0.542c0 0.224 0.182 0.406 0.406 0.406v0c0.224 0 0.406-0.182 0.406-0.406v-0.542c0-0.224-0.182-0.406-0.406-0.406z"></path>
            <path fill="#b00000" style="fill: var(--color1, #b00000)"
                d="M15.968 20.581h-0c-0.224 0-0.406 0.182-0.406 0.406v0.542c0 0.224 0.182 0.406 0.406 0.406h0c0.224 0 0.406-0.182 0.406-0.406v-0.542c0-0.224-0.182-0.406-0.406-0.406z"></path>
            <path fill="#b00000" style="fill: var(--color1, #b00000)"
                d="M22.063 15.84v0c0-0.224-0.182-0.406-0.406-0.406h-0.542c-0.224 0-0.406 0.182-0.406 0.406v0c0 0.224 0.182 0.406 0.406 0.406h0.542c0.224 0 0.406-0.182 0.406-0.406z"></path>
            <path fill="#b00000" style="fill: var(--color1, #b00000)"
                d="M11.227 15.84v0c0-0.224-0.182-0.406-0.406-0.406h-0.542c-0.224 0-0.406 0.182-0.406 0.406v0c0 0.224 0.182 0.406 0.406 0.406h0.542c0.224 0 0.406-0.182 0.406-0.406z"></path>
            <path fill="none" stroke="#b00000" style="stroke: var(--color1, #b00000)"
                stroke-linejoin="round" stroke-linecap="round" stroke-miterlimit="4"
                stroke-width="0.96" d="M13.856 15.883l1.498 1.456 3.11-3.023"></path>
        </symbol>
        <symbol id="icon-cloud" viewBox="0 0 32 32">
            <path fill="#b00000" style="fill: var(--color1, #b00000)" opacity="0.15"
                d="M16.128 32c8.837 0 16-7.163 16-16s-7.163-16-16-16c-8.837 0-16 7.163-16 16s7.163 16 16 16z"></path>
            <path fill="none" stroke="#b00000" style="stroke: var(--color1, #b00000)"
                stroke-linejoin="miter" stroke-linecap="butt" stroke-miterlimit="4"
                stroke-width="0.96"
                d="M13.965 24.192c0.070 0.031 0.146 0.046 0.223 0.046 0.228-0.001 0.433-0.138 0.519-0.349l0.456-1.101c0.554 0.076 1.117 0.075 1.671-0.002l0.458 1.102c0.056 0.139 0.166 0.249 0.304 0.306s0.293 0.057 0.431-0.001l1.905-0.79c0.141-0.058 0.252-0.17 0.309-0.311 0.056-0.136 0.055-0.289-0.004-0.424l-0.456-1.104c0.446-0.338 0.844-0.735 1.182-1.18l1.097 0.454c0.138 0.060 0.295 0.061 0.434 0.005s0.25-0.168 0.307-0.307l0.791-1.907c0.057-0.137 0.057-0.292 0.001-0.43-0.056-0.139-0.166-0.25-0.305-0.307l-0.781-0.325-12.729-0.116-1.077 0.444c-0.283 0.121-0.414 0.448-0.295 0.731l0.788 1.911c0.057 0.137 0.167 0.246 0.304 0.302 0.137 0.058 0.292 0.058 0.43 0.001l1.105-0.456c0.339 0.446 0.736 0.844 1.182 1.183l-0.453 1.095c-0.061 0.137-0.063 0.292-0.007 0.431 0.057 0.14 0.168 0.252 0.308 0.31l1.902 0.788z"></path>
            <path fill="none" stroke="#b00000" style="stroke: var(--color1, #b00000)"
                stroke-linejoin="miter" stroke-linecap="butt" stroke-miterlimit="4"
                stroke-width="0.96"
                d="M22.231 17.679h-11.399c-1.917 0-3.472-1.554-3.472-3.472s1.554-3.472 3.472-3.472c0.024 0 0.046 0 0.066 0.001l0.322 0.007 0.129-0.295c0.649-1.487 2.117-2.448 3.739-2.448s3.090 0.961 3.739 2.448l0.123 0.281 0.307 0.007c1.187 0.027 2.249 0.747 2.713 1.84l0.116 0.273 0.296 0.018c1.299 0.080 2.299 1.178 2.258 2.478s-1.107 2.334-2.408 2.333z"></path>
            <path fill="#b00000" style="fill: var(--color1, #b00000)"
                d="M15.999 20.975h0.001c1.92-0.008 3.639-1.191 4.331-2.982 0.050-0.128 0.028-0.274-0.059-0.381s-0.224-0.16-0.36-0.138c-0.136 0.022-0.25 0.116-0.298 0.245-0.572 1.499-2.010 2.488-3.614 2.488s-3.042-0.99-3.614-2.489c-0.048-0.129-0.162-0.223-0.298-0.245s-0.274 0.030-0.361 0.138c-0.087 0.107-0.109 0.253-0.059 0.381 0.692 1.791 2.411 2.975 4.331 2.982z"></path>
        </symbol>
        <symbol id="icon-headphone" viewBox="0 0 32 32">
            <path fill="#b00000" style="fill: var(--color1, #b00000)" opacity="0.15"
                d="M15.941 32c8.804 0 15.941-7.163 15.941-16s-7.137-16-15.941-16c-8.804 0-15.941 7.163-15.941 16s7.137 16 15.941 16z"></path>
            <path fill="none" stroke="#b00000" style="stroke: var(--color1, #b00000)"
                stroke-linejoin="miter" stroke-linecap="round" stroke-miterlimit="4"
                stroke-width="0.9965"
                d="M8.477 14.672h-0.889c-0.152 0-0.298 0.065-0.406 0.181s-0.168 0.273-0.168 0.438v2.482c0 0.164 0.060 0.322 0.168 0.438s0.254 0.181 0.406 0.181h0.889"></path>
            <path fill="none" stroke="#b00000" style="stroke: var(--color1, #b00000)"
                stroke-linejoin="miter" stroke-linecap="round" stroke-miterlimit="4"
                stroke-width="0.9965"
                d="M23.667 14.672h0.626c0.152 0 0.298 0.065 0.406 0.181s0.168 0.273 0.168 0.438v2.482c0 0.164-0.060 0.322-0.168 0.438s-0.254 0.181-0.406 0.181h-0.889"></path>
            <path fill="none" stroke="#b00000" style="stroke: var(--color1, #b00000)"
                stroke-linejoin="miter" stroke-linecap="round" stroke-miterlimit="4"
                stroke-width="0.96"
                d="M19.268 22.567h1.167c1.317-0.962 2.295-2.321 2.792-3.88s0.486-3.237-0.030-4.79c-0.516-1.553-1.511-2.9-2.839-3.845s-2.923-1.44-4.55-1.411c-1.627 0.028-3.203 0.578-4.499 1.569s-2.243 2.372-2.706 3.941c-0.462 1.57-0.415 3.247 0.135 4.788s1.574 2.865 2.923 3.781"></path>
            <path fill="none" stroke="#b00000" style="stroke: var(--color1, #b00000)"
                stroke-linejoin="miter" stroke-linecap="round" stroke-miterlimit="4"
                stroke-width="0.96"
                d="M18.359 23.304h-3.083c-0.161-0.001-0.316-0.067-0.43-0.183s-0.179-0.275-0.179-0.44v-0.081c0.001-0.165 0.065-0.323 0.179-0.44s0.269-0.183 0.43-0.184h3.083c0.161 0.001 0.316 0.067 0.43 0.183s0.179 0.275 0.179 0.44v0.081c-0.001 0.165-0.065 0.323-0.179 0.44s-0.269 0.183-0.43 0.183z"></path>
            <path fill="#b00000" style="fill: var(--color1, #b00000)"
                d="M11.218 17.876h1.991v-0.483h-1.173v-0.019l0.408-0.4c0.574-0.524 0.728-0.785 0.728-1.103 0-0.484-0.395-0.826-0.994-0.826-0.586 0-0.989 0.35-0.987 0.899h0.56c-0.001-0.267 0.168-0.431 0.423-0.431 0.245 0 0.428 0.153 0.428 0.398 0 0.222-0.136 0.375-0.39 0.619l-0.994 0.92v0.425zM13.535 17.385h1.34v0.491h0.565v-0.491h0.346v-0.473h-0.346v-1.829h-0.739l-1.166 1.837v0.465zM14.886 16.912h-0.757v-0.022l0.735-1.163h0.022v1.185zM17.893 17.489l0.359-0.359-0.635-0.634 0.635-0.634-0.359-0.361-0.635 0.635-0.637-0.635-0.357 0.361 0.634 0.634-0.634 0.634 0.357 0.359 0.637-0.635 0.635 0.635zM18.9 17.876h0.61l1.159-2.303v-0.49h-1.96v0.483h1.349v0.019l-1.158 2.291z"></path>
        </symbol>
        <symbol id="icon-phone" viewBox="0 0 32 32">
            <path fill="none" stroke="#b00000" style="stroke: var(--color1, #b00000)"
                stroke-linejoin="round" stroke-linecap="round" stroke-miterlimit="4"
                stroke-width="3.2"
                d="M29.333 22.56v4c0.002 0.371-0.075 0.739-0.223 1.079s-0.367 0.646-0.64 0.897-0.597 0.442-0.948 0.561c-0.352 0.119-0.724 0.163-1.094 0.13-4.103-0.446-8.044-1.848-11.507-4.093-3.222-2.047-5.953-4.779-8-8-2.253-3.478-3.656-7.439-4.093-11.56-0.033-0.369 0.010-0.74 0.129-1.091s0.308-0.673 0.558-0.947c0.25-0.273 0.553-0.492 0.892-0.641s0.705-0.227 1.075-0.227h4c0.647-0.006 1.274 0.223 1.765 0.645s0.811 1.008 0.902 1.649c0.169 1.28 0.482 2.537 0.933 3.747 0.179 0.477 0.218 0.996 0.112 1.495s-0.353 0.956-0.712 1.319l-1.693 1.693c1.898 3.338 4.662 6.102 8 8l1.693-1.693c0.363-0.358 0.82-0.605 1.319-0.712s1.017-0.068 1.494 0.112c1.21 0.451 2.467 0.764 3.747 0.933 0.648 0.091 1.239 0.418 1.662 0.917s0.648 1.136 0.631 1.79z"></path>
        </symbol>
    </defs>
</svg>